<svg xmlns="http://www.w3.org/2000/svg" viewBox="0 0 380.3 107.2" fill-rule="evenodd" xmlns:v="https://vecta.io/nano"><path d="M322.3 15.9c-4.2 1.1-7.8 2.3-10.5 3.5-6.5 2.9-7.6 3.6-8.4 5.2-4.4 9.2-6.5 16.5-7.4 25.6-.1 1.5.4 2.2 2.8 3.7 1.3.8 1.8 1.2 1.9 1.5.2.6 2.1 5.9 2.7 7.2.5 1.1.5 1.1 3.2 3.2 1.8 1.3 2.9 2.3 3.3 2.8.3.4 1.4 1.9 2.4 3.4s2.4 3.4 3 4.3 1.2 1.7 1.3 1.7c.2.1 1.4.6 2 .9 3.5 1.6 10.2 2.8 14.5 2.6 2.7-.1 5.8-.5 7.4-.9.7-.2 1.7-.5 2.2-.6s1.2-.4 1.5-.5.7-.3 1-.3c.6-.1.8-.3 1-1 .2-1 2.1-2.3 5.3-3.7l2.9-1.3 2.6-2.3 2.7-2.5c.1-.1.6-.8 1.1-1.5s1-1.4 1.2-1.5c1.3-1.4 2.8-3.8 3.8-6 .6-1.3 2.1-6.3 2-6.4 0 0-.8-.4-1.7-.8-9.1-4.1-9.1-4.1-9.1-7.2v-1l-.5.3c-.3.2-1.7 1.8-3.2 3.6l-2.8 3.4-2.9.4c-1.6.2-3.1.4-3.4.5-.7.1-1.8-1.3-1.9-2.5s-1.2-1.9-2.8-1.7l-1 .1-1.8-2.5c-6.1-8.2-7.3-10.5-10.4-19.7-1.3-3.8-1.8-5.7-2.3-8.3-.3-2.1-.3-2-1.7-1.7m-23.4 3c-.4.4-.1.6.3.2.3-.3.3-.4.2-.4-.2 0-.4.1-.5.2m-2.2 2.1c-.3.3-.3.7 0 .6s.7-.8.4-.8a.76.76 0 0 0-.4.2m35.2 11.7c-1.2 1.2-.3 5.7 1.4 7.4.2.2.4.4.4.5s.2.3.5.5.8.7 1.2 1c1.5 1.4 3.2 1.8 3.9 1 1.1-1.3 1.1-4.6 0-6.8-1.6-3-5.9-5.1-7.4-3.6" fill="#e2e4e6"/><path d="M266 53.6v53.6h1.1 1.1V53.6 0h-1.1-1.1v53.6m-198.1-42c-1.7.9-1.8 2.6-.1 3.5 1.4.7 3-.2 3-1.7s-1.6-2.5-2.9-1.8m58.5.1c-2 .9-1.2 3.7 1 3.7s2.9-2.8.9-3.7c-.9-.4-1-.4-1.9 0m5.3 0c-1.9.9-1.1 3.7 1.1 3.7 1.2 0 2.4-1.4 2-2.4-.5-1.5-1.8-2-3.1-1.3M28.9 13.1l-1.7 1.6V26c0 13 .1 12.2-1.6 15.5-3.5 7.1-16 7.6-21.1.8-3-4-1.6-11.3 2.7-14.3.6-.4 3.1-1.7 3.3-1.7.1 0 .4-.1.7-.2.7-.3 2.7-.9 3.6-1 1-.2.9-.4-.3-.4-3.8 0-7.8 1.2-10.1 3.2C-3.2 34.1-.5 47 8.8 49.6c10.3 2.9 20.1-2 21.3-10.8l.2-1.4.6.3c.9.4 42.2.5 43.3.1.8-.3 1.6-1.2 2.1-2.2.4-1 .5-8 .1-9.6-1.9-7.4-11.4-9-15.6-2.6-2.4 3.6-2.6 7.1-.7 10.4.3.5.6 1.1.6 1.2s-4.1.2-14 .2c-15.2 0-14.5 0-15.4-1-.8-.9-.8-.6-.7-11.9V11.5c-.1 0-.8.7-1.7 1.6m91.8-.9c-1.5.8-7.7 2.9-14.7 4.8-.7.2-1.4.4-1.6.5a5.48 5.48 0 0 1-1.2.4c-2.4.6-3.1.8-5.1 1.5-4.1 1.4-5.3 2.3-4.7 3.7.2.5 1.6 2 1.9 2 .1 0 1 .4 2 .8.2.1 2.5.9 5.1 1.9 10.8 3.9 11.7 4.5 10.3 5.8-.9.9-.6.9-15.9.9H82.7V23.4l-.1-11.2c-.1 0-.8.7-1.7 1.5l-1.5 1.5v11.5V38H96h16.7l.8-.4c.5-.2 1-.5 1.2-.7l.4-.3 1.3.6c2.5 1.2 2.7 1.3 8.5 1.3 7.2 0 8.6-.4 9.9-2.9l.4-.7v-8.2l-.1-8.2c-.1 0-1 .8-2 1.8l-1.8 1.7-.1 5.8c-.2 7.9.8 7.1-8.1 7.1h-6.9l.1-1c.2-1.9-1-3.3-3.4-4.2-.7-.3-1.5-.5-1.8-.6s-.5-.2-.6-.2-4.7-1.6-5.9-2.1c-.3-.1-1.5-.6-2.7-1-3.3-1.2-3.7-1.4-4.3-1.8-1.2-1-1.1-1.5.3-2 .5-.1 1.7-.5 2.8-.8l3.2-.9 3-.9c1-.3 2.8-.9 4-1.2 7.3-2.3 9.1-3 9.7-3.7 1-1.2.8-2.8.1-2.3m207.9 2.6c-1.5.1-1.7.3-2.1 1.5s-.3 4.5.2 6.8l.5 2.4c.2.7.5.9.5.3 0-2.2 6.7-2.3 11.2-.1 7.8 3.8 11.3 12.7 7.9 20.8-.9 2-2.2 3.3-3.3 3-.4-.1-.4-.1.2.5.8.8 1.7 1.4 2.1 1.4.2 0 .3.1.3.2 0 .3 2.3-.2 3.4-.7 1-.5 4-3.8 4-4.5 0-.1.1-.2.2-.2s.3-.3.5-.6.6-.8.9-1.1c1.1-1.2 1.5-1.6 1.7-1.6.1 0 .1-.1.1-.2s.1-.4.3-.6c.7-.9.2-6.8-.8-9.3-.1-.2-.3-.8-.5-1.3-.4-1-1.6-3.7-1.9-4-.1-.1-.5-.7-.9-1.3s-.8-1.2-.9-1.2-.3-.4-.5-.7c-1.2-1.5-6.1-5.8-6.7-5.8l-1-.6c-.5-.3-1.5-.8-2.1-1s-1.2-.5-1.3-.6c-.3-.1-2.8-.8-4.2-1.2-2.1-.4-5.3-.5-7.8-.3M69.9 23.1c1.3.4 2.1.9 2.8 1.9l.5.7.1 4 .1 4-.4.5-.4.5-2.6.1c-2.9.1-3.4-.1-5-1.4-5.2-4.1-1.3-12 4.9-10.3m149.6 34.2c-3 1.1-5.1 4.7-5.7 9.6l-.2 1.5-1.4-.1-1.4-.1v.9.9h1.4 1.4l-.1 7.2-.2 8.4-.1 1.2h1.8 1.8l-.1-8.4-.1-8.4h2 2v-1-.9l-2 .1-2 .1-.2-1.5c-.8-5.3.7-7.7 4.2-6.6 1.1.3 1 .5 1-1.5V57h-.8c-.2 0-.9.1-1.3.3m-44.8 0c.3.5.4 17.3.2 24.8l-.1 4.5h1.7 1.7l-.1-4.8c-.1-5.1-.1-5.3.7-4.4l5.6 6.6 2.1 2.5h2.1c2.4 0 2.4 0 1.5-.9-.3-.4-1.1-1.2-1.7-1.9s-1.5-1.7-2.1-2.3c-.5-.6-1.2-1.4-1.6-1.8a9.23 9.23 0 0 0-.8-.9c-.4-.4-2.3-2.7-2.3-2.8 0-.2 2.3-2.3 4.3-4.1.6-.5 1.1-1 1.2-1.1s.6-.5 1.2-1c.5-.5 1.2-1 1.5-1.3l.5-.4h-1.8-1.8l-.9 1c-4.1 4.5-7.3 7.4-7.7 6.9-.1-.1-.1-3.3-.1-9.5l.1-9.3h-1.8l-1.6.2M246.1 72v14.7h1.7 1.7l-.1-2c-.2-2.5-.2-23 0-25.6l.1-1.9h-1.7-1.7V72M135.9 60.3c.1.8.1.8 0 1.5l-.1.6 1.1-.1c.6-.1 2.5-.2 4.2-.2l3.1-.1-.1 12.4-.1 12.4h1.9 1.9l-.1-1.8c-.2-3.6-.3-13.1-.2-17.9l.1-5 3 .1c1.7.1 3.5.1 4 .2l1 .1v-1.4-1.4l-1.8.1c-2.4.2-11.9.2-15.4 0l-2.8-.1.3.6m24.4 7.5c-1.5.3-1.9.5-3.3 1.3-1 .6-1.2.9-1.1 2.1.1 1 .4 1.1 1 .2 2.3-3.3 7.5-2.5 8.3 1.1.6 2.6.1 3.2-3 3.8-.7.1-1.9.3-2.6.5-4.2.8-6.4 4-4.9 7.3 1.4 3.3 6.3 3.8 9.8 1.1l1-.8.1.5c.4 1.4 2.2 2 4.2 1.5 1.1-.3 1.4-1.4.3-1.2-1.6.3-1.8-.4-1.6-7.4.1-7.2-.3-8.3-3.3-9.7-1.5-.6-3-.7-4.9-.3m38.6-.1c-1.3.3-2.7.8-3.8 1.6l-.8.5V71c0 1.3.2 1.5.7.7 2.2-3.3 7.3-3 8.4.5 1 3 .4 3.6-4.6 4.5-1.3.2-2.6.5-2.8.7-.3.1-.6.2-.7.2s-.2.1-.2.2-.1.2-.2.2c-1 0-2.2 2.2-2.2 4.2 0 5 6.1 6.6 10.4 2.8l.6-.5.3.6c.7 1.7 5 2.2 5 .5 0-.4 0-.5-.6-.4-.5 0-.7 0-1-.4l-.4-.4v-6.1c0-7.1 0-7.2-1.4-8.7-1.7-1.7-4-2.4-6.7-1.9m25 7.5c0 7.2 0 7.2.4 8.2 1.7 4.5 9.3 4.8 11.8.4.2-.3.2 0 .1 1.2v1.5h1.6 1.6v-9.3-9.3h-1.6-1.6v6c0 6.3-.1 7.1-.8 8.5-1.3 2.5-4.8 3.2-6.9 1.4-1.7-1.5-1.8-2.5-1.4-13.3l.1-2.5h-1.6-1.6v7.2m-58.7 3.9c-.1 1.2-.1 2.5-.1 2.9 0 1.5-2.3 3.3-4.2 3.3-2.5 0-4.1-2.6-3.1-4.9.7-1.6 1.8-2.2 5.1-2.9.6-.1 1.4-.3 1.8-.4.3-.1.6-.2.7-.2-.1.1-.1 1.1-.2 2.2m38.5-1.6c-.1.3-.1 1.6-.1 2.9v2.4l-.5.6c-2.9 3-6.6 2.5-7-1-.3-2.7 1.4-4.3 5.3-4.8.4-.1 1.1-.2 1.5-.3.9-.4.9-.4.8.2" fill="#079bda"/><path d="M318.9 15.3c-.6.1-1.6.4-2.3.6l-1.8.5c-.3 0-.5.1-.5.2s-.3.2-.7.2c-.4.1-.7.2-.7.3s-.2.2-.5.2-.6.1-.7.2-.4.2-.6.3c-.6.1-3.2 1.1-3.3 1.2 0 .1-.2.1-.4.1s-.4.1-.5.2-.6.3-1.1.5c-1.6.6-2.2.9-2.2 1s-.1.1-.3.1c-.3 0-2.6 1.4-2.7 1.8-.1.1-.2.3-.4.5a.76.76 0 0 0-.2.4c0 .1-.1.2-.1.2-.1 0-.3.3-.5.6l-.5.8c-.1.1-.2.2-.2.4 0 .1-.1.4-.2.7s-.5 1-.7 1.6-.6 1.3-.7 1.7c-.1.3-.5 1.1-.7 1.8-.2.6-.6 1.5-.8 2-.4.9-.5 1.2-1.1 3l-.6 1.6a2.39 2.39 0 0 0-.2.9c0 .2-.1.4-.2.4s-.2.1-.2.3-.1.6-.2 1l-1.3 4.3c0 .2-.1.4-.2.5s-.2.2-.2.4-.1.3-.2.3-.2.2-.2.5-.1.4-.3.4c-.1 0-.2.1-.2.3 0 .4-.3.4-.4 0-.1-.2-.1-.2-.1.1v.4l-.2-.5c-.1-.3-.3-.8-.3-1.1 0-1-.3-1.4-.3-.6-.1 1.1-.3-1.6-.3-4s.2-5.2.6-7c.3-1.6.2-2-.3-.8l-1.1 2.5-1.3 3.8-.5 1.7c-.2.4-.8 3.9-1.2 6.1-.2 1.5-.3 9.9-.1 11.8.3 2.3.9 5.8 1.4 7.5.3 1.1 1.4 4.3 1.6 4.8.1.2.3.8.6 1.4.8 1.9 3.3 6.8 3.7 7.2.1 0 .3.4.5.8 2.6 4.3 8.3 10.1 12.9 13.2.2.1.6.4 1 .7 10.2 6.8 24.1 9.3 36.6 6.4 2.3-.5 4.2-1.1 5.2-1.5.2-.1 1-.4 1.7-.7 3.1-1.2 8.6-4.2 10.8-6 .1-.1.5-.4.9-.7 4.9-3.9 8.6-8.2 11.9-13.8 4.7-7.9 7-17.8 6.4-27.7-.1-1.7-.2-3.2-.3-3.3 0-.1-.2-.7-.3-1.4-.4-2.8-1.9-8.3-2.9-10.5l-.2-.6c0-1-4.1-8-6.5-11-2.2-2.9-5.2-5.7-3.8-3.5.5.7 2.2 4.2 2.7 5.3.1.3.3.8.4 1.1.4 1 1.3 4 1.8 6 1.2 4.9 1 16.8-.3 17.7a1.38 1.38 0 0 0-.3.4c-.2.5-2.5.8-4 .5-1.2-.3-2.3-.6-2.6-.7-.2-.1-.4-.1-.6-.1-.8 0-2.8-1.3-4-2.7-1-1.1-2.2-1.3-1.6-.2.4.7 1.7 1.4 7.2 3.9 5 2.2 5.2 2.4 5.1 2.8-.3 1-3 5.3-4.4 6.9l-3.4 4.3c-2.3 2.9-2.8 3.5-5.1 5.5l-2.5 2.2-3 1.3c-2.5 1.1-3.2 1.5-3.9 2.1-.5.4-.9.8-1 .9-.1 0-.3.5-.4 1.1l-.3 1-3.3 2.2c-7.7 5.1-7.1 4.7-10 5.7-1.5.5-3.4 1-4.2 1.3l-1.5.4-.3 1.2-.3 1.2-1-.1c-1.2-.1-4.1-.7-4.3-.9-.1-.1-.5-.9-.9-1.9-.5-1-1.4-3-2-4.3-1.1-2.3-1.2-2.6-1.5-4.3l-.3-1.8-2.2-3.2c-4.9-7.2-4.7-6.9-7.8-9.2-1.9-1.4-2.8-2.2-3-2.6-.5-1.1-1.4-3.6-2.2-5.8-.5-1.3-.8-2.3-.9-2.4l-1.8-1.1c-2.3-1.4-2.9-2.1-2.8-3.5.7-8.3 3-16.5 6.9-24.7 1.3-2.7 1.1-2.5 3.8-3.9 4.8-2.5 11.5-5.1 15.4-5.9.7-.2.4-.5-.7-.7-.8-1-.8-1-2.2-.7m46 3.2c.2.3.5.5.6.6s0-.2-.3-.5c-.7-.7-.9-.8-.3-.1M246.4 32.8c0 .5 0 .6.1.4v-.8c-.1-.3-.1-.1-.1.4m43.3-.6c-.3.4-.4.6-.3.6s.2-.2.3-.4c.3-.4.3-.5 0-.2m-40.2 1.6c0 .4 0 .5.1.3v-.7c0-.2-.1 0-.1.4m-3.1 4.8c0 .9 0 1.3.1.8v-1.7c0-.5-.1 0-.1.9M294 59.2c-.1.1 0 .1.2-.1.2-.1.3-.2.3-.1s.2.2.5.3.5.3.4.4 0 .2.1.3.3.3.3.6c0 .2.2.5.3.6s.2.6.2 1c0 .7 0 .8-.3.5-.2-.3-.2-.3-.1.2.1.4.1.5-.2.2-.2-.2-.3-.3-.3-.4 0 0-.1-.2-.2-.3-.2-.2-.4-.4-.5-.6-.2-.3-.2-.3-.1.1l.1.4-.3-.4c-.1-.2-.2-.5-.2-.6.1-.2 0-.2-.1-.2-.2.1-.3 0-.3-.2s0-.3.1-.3.2.1.2.2 0 .2.1.1-.1-.3-.2-.6c-.3-.5-.3-.6-.1-.9.1-.2.2-.4.1-.6s-.1-.2.1 0c0 .2 0 .3-.1.4" fill="#09405e"/><path d="M152.7 11.6c-1.6.7-1.6 2.7-.1 3.5 1.4.7 3-.2 3.1-1.7 0-1.4-1.6-2.4-3-1.8m5.4.1c-1.6.7-1.7 2.6-.1 3.4 1.9 1 4.1-1.5 2.5-2.9-.9-.9-1.4-1-2.4-.5m33.6 0c-2 1-1.2 3.7 1.1 3.7 2.2 0 2.7-3.2.5-3.8-.8-.3-.8-.3-1.6.1m56.1 2l-1.5 1.4.1 15.7c.1 16.5.1 16.5-.7 18.7-.5 1.4-.8 2.1-1.4 3.1s-.5 1.1.4.6c2.8-1.7 4.3-4.9 4.7-9.5.2-2.2.2-21.1 0-27.4l-.1-3.9-1.5 1.3m-5.5.3l-1.6 1.3v9.5 9.5l-.4.4c-.7.8-3.1 1-7.4.6-4-.3-5.8-1.5-5.8-3.7V31h1.6c.9 0 1.7 0 1.8-.1.1 0 .6-.1 1.1-.1h1l1.5-1.4 1.5-1.4h-2.2c-4.2 0-8.1-1-11.1-3-1.1-.7-3.4-2.1-5-2.9-5.2-2.8-9-2.8-10.5.2-.5 1-1 4.5-.6 4.8.3.3 1-.2 1.1-.7 0-.3.3-1 .6-1.6 1.5-2.9 4.3-2.8 9.7.4 5.2 3.1 6 3.9 4.2 4.3-1.5.3-5.4 2.4-8.6 4.5-2.2 1.5-2.6 1.5-10.1 1.5-7.1 0-7 0-7.9-1.2l-.5-.7v-7.2-7.2l-1.5 1.2-1.5 1.2v10c0 11 0 12-1 16.4-.4 1.6-1.2 3.9-1.8 5-.4.8-.3.8.7.1 2.1-1.4 3.8-4.2 4.7-7.5.4-1.6.5-2.2.6-4.9l.1-2.7h6c11.1.1 10.4.2 18.5-4.3 2-1.1 3.2-1.6 3.9-1.6h.8l.3 1c1.2 3.7 4.8 5.2 13 5.2 3.4 0 5.5-1.1 6.7-3.5l.4-.8V23.3c0-8.4 0-10.7-.2-10.7-.4.1-1.2.7-2.1 1.4m-76.8 5.8c-.5.4-1.2 1-1.5 1.3l-.6.5.1 2.5c.9 15-.2 26-2.9 29-1.1 1.2.4.3 1.7-1.1 2.5-2.6 4-7.2 4.2-12.9v-1.2h9.2c14 0 13.2.7 13.2-10.9 0-4.6-.1-7.7-.2-7.7s-.8.6-1.5 1.2l-1.3 1.2-.1 6.1c-.1 6.8-.2 7.1-1.1 7.5-.6.3-1 .3-8.4.3-8.3 0-8.2 0-9-.9s-.8-.8-.9-8.6l-.1-7.4-.8 1.1m-12.7 2.1c-5.1.8-7.9 3.4-8.1 7.6-.2 5.8 3.1 9 8.9 8.6 3.5-.3 5.6-1.4 6.8-3.8l.5-1 .1-5.8.1-5.8h-3.4c-2 0-4.1.1-4.9.2m4.7 2.9l.4.1v3.8 3.8l-.5.8c-1.8 2.8-7.1 3-8.8.3-1.7-2.6-.9-6.3 1.8-7.8 1.2-.8 5.6-1.4 7.1-1m22.1 16.3c-1.9.9-1.3 3.5.9 3.6 2.3.1 3.1-2.6 1.1-3.6-.7-.3-1.4-.3-2 0m5.3 0c-1.6.7-1.7 2.6-.2 3.4 1.8.9 3.8-.7 3-2.4-.5-1.1-1.7-1.5-2.8-1m33.8.1c-.8.5-1.1 1.1-1 1.9.3 2.1 3.1 2.3 4 .4.8-1.7-1.4-3.3-3-2.3M29 58.7c.2 1.9.2 24.3 0 26.4l-.1 1.5h1.8 1.8l-.1-2c-.2-2.5-.2-23 0-25.5l.1-1.9h-1.8-1.8l.1 1.5m-16.7.8c0 .1-.7 1.6-1.5 3.5l-2.7 6.2c-.9 2-1.2 2.7-1.8 4.2-.1.3-.4.9-.6 1.3-.2.5-.6 1.2-.8 1.8-.2.5-1 2.2-1.7 3.8s-1.6 3.6-2 4.3c-1.1 2.3-1.1 2.2.6 2.2h1.5l.3-1c.3-1.1 1.8-5.1 2.7-7.6l.7-1.9h4.8 4.8l.6 1.6c.3.9.7 1.8.9 2.1.5 1 1.1 2.6 1.8 4.5l.7 2h2c1.1 0 2-.1 2-.1 0-.1-1.3-3.2-3.4-8-.1-.3-.9-2.2-1.8-4.3l-1.8-4.2c-.1-.2-.3-.8-.6-1.4s-.5-1.2-.6-1.4c-.2-.4-1.2-2.9-2.4-5.7-.7-2-1.3-2.6-1.7-1.9m26.5.2c-1.8 1.2-.6 4 1.6 3.5 1.8-.3 2.2-2.8.6-3.7-.7-.3-1.5-.2-2.2.2m50.4.1c-1.4 1.2-.8 3.3 1 3.5 1.4.2 2.5-.8 2.3-2.2-.2-1.6-2.1-2.4-3.3-1.3m-76.3 5.1l.9 2.1c.3.6 1.5 3.4 2.1 5 .1.2-.8.2-4 .2s-4.1 0-4-.2c.6-1.5 2.5-6 2.8-6.6.2-.4.3-.7.3-.8l.4-1 .4-1 .2.5c.2.3.6 1.1.9 1.8m27.5 3.9l-1.5 1.4v10.5c0 13.9-.4 16.9-2.9 21.6-.7 1.4-.6 1.3.8-.1 3.5-3.7 4.5-6.8 4.7-13.5l.5-20.1-.1-1.2-1.5 1.4m14.1-1c-1.4.2-2.6.7-3.8 1.6l-.8.6v1c0 .9 0 1 .3 1.1h.3c0-.4 1.4-1.7 2.1-2 3.6-1.5 6.4-.1 6.7 3.4.2 2.3 0 2.4-4.3 3.2-4.7.9-6.1 1.9-6.6 4.6-1 5.1 5.5 7.7 10 4.1 1.1-.9 1.1-.9 1.4-.1.5 1.2 2.8 1.7 4.4 1.1.7-.3.8-1.3.1-1.1-1.7.4-1.8.1-1.8-7.3v-6.3l-.6-1c-1.4-2.5-4-3.5-7.4-2.9m51.4-.1c-1.4.4-2.6 1.4-3.6 3l-.5.8.1-1.8.1-1.8h-1.6-1.6v9.3 9.3h1.6 1.6v-6.2c0-6.9 0-7.2 1.3-8.6.9-1 2.7-1.4 3.8-.8.8.4 1 .2 1-1.3 0-.8 0-1.5.1-1.6.1-.3-1.3-.6-2.3-.3m10.6 0c-1.5.2-2.7.6-4 1.4l-1.1.7v1.1c-.1 1.3.3 1.6.8.8.9-1.5 3.6-2.6 5.5-2.1 1.8.4 2.9 1.8 3.2 4 .2 2.2 0 2.4-5.6 3.4-3.7.6-5.5 2.4-5.5 5.3 0 4.9 6.1 6.6 10.3 3l.7-.6.4.7c.7 1.3 2.9 1.8 4.5 1.1.9-.4.8-1.2-.2-1.1-.6.1-.8 0-1.1-.4l-.4-.4-.1-6.4c-.1-6.4-.1-6.5-.5-7.2-.8-1.6-2.2-2.6-4-3-1.4-.4-1.8-.4-2.9-.3m-47.3 1.5v1.1h.5c.3 0 2.2-.1 4.2-.3l4.6-.2.9.1-2.2 3-6.8 9.1c-2.6 3.3-3.2 4.1-3.2 4.4s.4.3 8.2.3h8.2v-1.2c0-.9 0-1.2-.2-1.1-.9.3-11.6.7-11.4.4.3-.5 3.8-5.2 7.9-10.6l4.2-5.8c0-.2-.8-.3-7.4-.3h-7.4v1.1m19.5-.1c.2 1.3.2 15.2 0 16.5l-.1 1h1.9 1.9l-.1-1c-.2-1.2-.2-15.3 0-16.6l.1-1h-1.8-1.8l-.1 1.1M59.3 79.8v2.8l-.8.8c-2.8 3.1-6.9 2.1-6.9-1.6 0-2.4 1.5-3.7 5.2-4.3.4-.1 1.1-.2 1.6-.3s.9-.2.9-.2 0 1.3 0 2.8m61.5-1.4c-.1.8-.1 2.1-.1 2.9v1.5l-.8.8c-2.9 2.9-6.8 1.8-6.8-1.9 0-2 1.2-3.2 3.8-3.9 1.5-.4 3.7-.9 3.9-.9v1.5" fill="#545c5c"/><path d="M328.1 5.7c-12.5 1-25.2 7.9-33 18-2.3 2.9-2.2 2.8-2.9 4l-.4.6c-.1.1-2 3.5-2 3.7 0 .4-.2.8-.4.8-.1 0-.1.1-.1.2.1.1 0 .7-.2 1.4-.4 1.8-.6 4.6-.6 7.1 0 2.4.2 5.1.3 4 0-.8.3-.3.3.6 0 .3.1.8.3 1.1l.2.5v-.4c0-.3 0-.3.1-.1.1.4.4.4.4 0 0-.2.1-.3.2-.3s.2-.2.3-.4c0-.3.1-.5.2-.5s.2-.2.2-.3c0-.2.1-.4.2-.4.1-.1.2-.3.2-.5 0-.3.4-1.7 1.3-4.3.1-.4.2-.9.2-1 0-.2.1-.3.2-.3s.2-.2.2-.4.1-.6.2-.9c.1-.2.4-1 .6-1.6.6-1.8.7-2.1 1.1-3 .2-.5.6-1.4.8-2s.6-1.4.7-1.8c.1-.3.5-1.1.7-1.7s.6-1.3.7-1.6.2-.6.2-.7a.76.76 0 0 1 .2-.4c.1-.1.4-.4.5-.8.2-.3.4-.6.5-.6s.1-.1.1-.2a.76.76 0 0 1 .2-.4c.1-.1.3-.4.4-.5.2-.3 2.4-1.8 2.7-1.8.2 0 .3-.1.3-.1 0-.1.6-.4 2.2-1 .5-.2 1-.4 1.1-.5s.3-.2.5-.2.4-.1.4-.1c.1-.2 2.7-1.2 3.3-1.2.2 0 .5-.1.6-.3.1-.1.4-.2.7-.2s.5-.1.5-.2.3-.2.7-.3.7-.2.7-.2.2-.2.5-.2 1.1-.3 1.7-.4c1.1-.3 1.9-.5 3.3-.7.5-.1 2.2.2 2.2.4s.5.3 1 .2l.6-.1.5 2.3c.4 2.1 1.8 6.8 2.4 8.2.5 1.1.9.7.6-.5-1.3-5.2-1.4-9.1-.2-10.3.6-.6 6.7-.6 9.2 0 1.6.4 4 1 4.2 1.2.1.1.7.3 1.3.6s1.5.7 2.1 1l1 .6c.6 0 5.6 4.3 6.7 5.8.2.3.5.6.5.7.1 0 .4.6.9 1.2.4.6.8 1.2.9 1.3.2.3 1.5 3 1.9 4 .2.5.4 1.2.5 1.3 1 2.5 1.6 8.4.8 9.3-.2.2-.3.5-.3.6s-.1.2-.1.2c-.1 0-.6.4-1.7 1.6-.3.3-.7.8-.9 1.1s-.4.6-.5.6-.2.1-.2.2c0 .3-1.8 2.7-2.6 3.5a5.86 5.86 0 0 1-2.2 1.4c-.2.1.1.1.7 0 1.3-.1 1 .2 3.9-3.4 3.4-4.2 4.1-4.8 3.9-3.3-.1 1.2 0 2.1.4 2.1.5 0 1.2.4 1.7 1 .9 1.1 1.6 1.6 2.5 2.1.5.2.9.5.8.6 0 .1.1.1.3.1s.6 0 .8.1c.4.2 1.5.5 2.7.7 1.6.3 3.8 0 4-.5.1-.1.2-.3.3-.4 1.3-.9 1.5-12.8.3-17.7-.5-2.1-1.4-5-1.8-6-.1-.3-.3-.8-.4-1.1-.4-1.1-2.2-4.6-2.7-5.3-.3-.4-.5-.8-.5-.9s-.1-.3-.3-.4-.3-.2-.3-.2c0-.3-2.5-2.6-3.9-3.6-2.1-1.6-3.2-2.3-3.3-2.3s-.6-.3-1.1-.7c-1.3-.9-3.7-2.1-5.8-3-.9-.4-1.9-.8-2.2-.9-.4-.2-1.1-.4-1.4-.5 0 0-.2-.1-.3-.1-2.9-1.8-11.9-2.8-18.2-2.3m14.6 44.1c-.2.3 1 2.3 1.4 2.3.1 0 .6-.1 1.2-.1.9-.1 1.4-.4.7-.4-.4 0-1.3-.6-2.1-1.3-.9-.9-1-.9-1.2-.5m-48.8 9.1c0 .1 0 .4-.1.6-.2.3-.2.4.1.9.2.3.3.6.2.6-.1.1-.1 0-.1-.1s-.1-.2-.2-.2-.1.2-.1.3c.1.2.2.3.3.2.2-.1.2 0 .1.2-.1.1 0 .4.2.6l.3.4-.1-.4c-.1-.4-.1-.4.1-.1.1.2.3.5.5.6.2.2.3.3.2.3 0 0 .1.2.3.4.3.3.3.3.2-.2-.1-.4-.1-.4.1-.2.2.3.2.2.3-.5 0-.5-.1-.9-.2-1s-.2-.4-.3-.6c0-.2-.2-.5-.3-.6s-.2-.2-.1-.3-.1-.3-.4-.4-.5-.3-.5-.3-.1 0-.3.1l-.2.1s.2-.3 0-.4c-.1-.3-.1-.3 0 0M168.4 82.8c0 .4 0 .6.1.4v-.8c-.1-.1-.1 0-.1.4" fill="#0575a6"/><path d="M329.8 24.3c-2.4.4-2.6 2.2-.9 6.1.3.6.7 1.7 1.2 3.2 1 2.7 2.2 5 1.6 2.9-.9-3.1.1-4.7 2.6-4.1 4.3 1 6.8 5.5 5.7 9.8-.5 2-2.4 1.9-4.6-.1-.5-.4-.9-.8-1-.8-.2 0 .4.8.6.8.1 0 .1.1.1.2s.1.3.1.3c.1 0 .6.7 1.2 1.5 1.9 2.5 3.2 3.6 4.1 3.6.5 0 1.8.8 2.1 1.2 1.3 2 4-.6 5.1-5 2.7-10.6-6.9-21.3-17.9-19.6" fill="#71b7e3"/><path d="M327.6 27.3l.3 1.8.2 1.2c0 1.1 2.3 6 4.1 8.7 1.7 2.5 6.9 9.7 6.3 8.7-.1-.2-.1-.2.2 0 .2.2.5.2.8.2.5-.1.5-.1.1-.2-.5-.2-1.9-1.6-3.3-3.4-.6-.8-1.2-1.5-1.3-1.6-.1 0-.1-.2-.1-.3s-.1-.2-.1-.3c-.2-.1-1.2-1.4-1.2-1.5s-.2-.3-.4-.5-.5-.6-.7-.9c-1.4-2.7-1.8-3.5-2.4-5.2-.8-2-1.1-3-1.4-3.6-.2-.4-1.1-3.1-1.2-3.7.1-.1.1.1.1.6m40.3 26.2c-.1.3-.2.8-.3 1.1-.3 1.6-1.4 4.5-2.5 6.7-.3.6-.5 1.1-.5 1.1.5 0 5.4-7.5 5.4-8.3 0-.1-.4-.4-1-.7l-1-.5-.1.6m-51.3 25c0 .2.1 1 .2 1.8.2 1.4.3 1.8 1.3 3.9l1.9 4c1.3 2.7 1 2.4 3 2.9 1 .2 2.1.4 2.6.4l.8.1.3-1.1c.4-1.4.3-1.3 2.1-1.8.8-.2 2.7-.8 4.1-1.2l2.6-.8 5.4-3.5c3.9-2.5 5.4-3.6 5.5-3.9.1-.4.1-.4-.3-.2-.2.1-.5.2-.7.2-.1 0-.5.1-.8.2s-1 .4-1.5.5c-.6.1-1.6.4-2.2.6-5 1.3-11.8 1.2-17.6-.3-2-.5-3.4-1-4.3-1.4-2.3-.8-2.5-.9-2.4-.4" fill="#939494"/><path d="M327.2 27.8c.7 1.9.9 2.2.7 1.5-.5-2.8-.4-2.8-.8-2.8h-.4l.5 1.3" fill="#818589"/></svg>