<svg xmlns="http://www.w3.org/2000/svg" viewBox="0 0 500 439.4" xmlns:v="https://vecta.io/nano"><style><![CDATA[.E{fill:#1e6ab4}.F{fill:#e12c34}.G{fill-rule:evenodd}]]></style><g class="G"><path d="M271.4 314.8c.5 1.9-1 1.8-.9 3.2-2.1-.7-4.2-.4-5.9.5.8 2.5 3.8 2.9 7.3 2.7-.7 3.8-6.5 2.6-8.6 5 1.6-2.4-.1-3.3-.9-5.4.9-4.1 3.4-6.6 9-6" class="E"/><path d="M394.6 324.5c-.6 4-2.4 6.8-4 9.8-13.1-.3-30.6 9.2-26.2 23.1 2.8 8.9 16.5 9.9 28.4 8-1 2.3-3.2 3.8-4.9 5.8-1.6 1.9-2.8 4.5-4.9 5.3-3.6 1.4-9.7.7-12.9 0-4.1-.9-8.3-3.8-10.2-7.1-6.6-11.2.4-28.7 8-35.5-3.2-1.5-6.4.6-9.3.9.8-3.3.8-6.1 2.2-8 5.4-7.3 24.2 1.3 33.8-2.3" class="F"/><path d="M343.7 329.8c-.3 2.3-2 3.3-2.7 5.3 1.1 6 .6 13.8-2.7 16.8-6.9-.5-15.8 1-21.3-.9-3.6 1.1-13.1 2-16-.4-1.1.6-2.2 1.1-3.5 1.3-10.4-.5-23 1.1-31.9-.9-1-5.2-.2-14.6-.4-19.1.7-2.7 2.7-4.1 4.9-5.3.3 5.9-.6 13 .4 18.2 3 2.2 9 1.3 14.2 1.3 5.3 0 10.6.2 13.7-.4 1.4-1.9 1.2-5.3 4.4-5.3 1.1 1.4.9 4.1 2.2 5.3 2.9.7 8.2.7 11.1 0 1-7.7-1.1-17.5 5.8-19.1v17.7c2 3 10.6 1.7 14.6 1.3 1-5-.2-11.6-1.8-15.5.2-1.8 1.5-2.6 2.2-4 1.9 1.7 4.3 2.7 6.8 3.7M90.1 345.3c8.1 1.5 22.8 1 32.8.4.1-3.3-2.8-3.7-5.3-4.4.8-2.2 2-3.9 3.1-5.8 3.5-1.1 10.6-1.8 12.9.9 1.8 3.6-1.1 6.2-2.2 8.4 2.8 2.5 11.7 1.2 16 .9 1.1-2.4 2-5.1 4.9-5.8.2 2.4 1 4 1.8 5.8 3.9.5 10.9 1.1 14.2-.4-.9-5.2-.2-12-2.7-15.5.9-.9 1.5-2.1 2.2-3.1 2.4.8 4.3 2.2 6.6 3.1-.3 2.4-1.7 3.6-2.7 5.3 1.9 5.4.8 13.2-2.2 16.4-5.7.6-15 1.1-20-.4-4.7.8-14.5 1.9-20.4.9-1.3-.2-2.3-.4-3.1-1.3-1.6-.1-1.6 1.3-3.1 1.3-12.5-.5-27.1 1.1-38.1-.9.4-5.4-1.9-13.8-.4-19.1.8-2.8 3.6-3.3 4.4-5.3.5-.1.8.1.9.4.5 6.3-.1 10.6.4 18.2m88.6 6.7c1.3-5.6-1.9-14.7-.9-19.5.6-3 3.3-3.4 4.4-5.8.5-.1.8.1.9.4 1.5 2.2.1 5.2 0 7.5-.1 7.2 1.7 16.4-4.4 17.4" class="E"/><path d="M415.9 359.1c2.4 1.9 5.5.4 7.5-.9 4.6-2.9 7.3-7.5 4.4-13.3-.8-1.5-2.6-2.8-2.7-4.4-.1-3.2 3.1-4.9 4.9-6.7 1.6 2.3 2.6 5.1 3.5 8 17 .7 37.1.7 54.1 0 .3-2.7-1.8-4-1.8-6.2.1-3.2 3.3-5.3 4.4-8 6.6 5.3 3.4 18.9 0 25.3-16.9.2-38.2-.4-55.9.4-2.6 2.8-2.6 6-4.4 9.3-1.5 2.8-3.6 6.6-7.1 6.6-2.3 0-3.7-1.5-4.9-2.7-.6-.6-2.5-4.4-3.1-4.4-1.6-.1-4.5 7-8 7.1-5.2.2-7.2-6.3-8.9-9.8 6.5 1.7 11.8-1.1 13.3-5.8-5.8-1.8-11.7-.3-12.4-7.1-.6-5.6 4.9-23.7 12.9-19.1 5.3 3.1 8.9 23.8 4.2 31.7m-7.5-23.1c-4.5-.1-3.9 9 3.1 5.8-.2-3.1-.8-5.8-3.1-5.8" class="F"/><path d="M61.2 330.2c-.2 1.5-1.3 1.9-2.2 2.7-2.2-.5-3.7-1.6-4.4-3.5 2.2-2.8 4.7-1.1 6.6.8m87.4.9c1.6.2 1.1-1.6 2.7-1.3 1.9.3 2.3 2.1 4 2.7 0 1.7-1.8 1.8-2.7 2.7-1.5-.6-3.7-1.6-4.9 0-2.1-.1-2.5-1.9-4-2.7.3-2.6 3.4-3.4 4.9-1.4m151.2 0c.8-.4 1.3-1.1 2.2-1.3 2 .5 3.3 1.7 4 3.5-1 .5-1.5 1.5-2.7 1.8-1.4-.9-3.6-1.3-4.9 0-1.8-.4-2.4-2.1-4-2.7.4-2.6 3.9-3.3 5.4-1.3m-89.6 5.8c.7 1.2-1.3 2.7-2.7 3.1-.8-1.4-2.7-1.7-3.5-3.1.8-3.4 4.9-1.9 6.2 0m20.8 8c2.8 2.2 8.4 1.2 12 .9 4.8-1.9 5.6-9.7 11.1-9.8 3.6 0 7.3 5.7 7.1 9.8-.2 3.4-3 5.8-4.4 8-4-1.1-7.1-3.2-11.5-4-2.9 3.7-11.6 1.7-17.7 2.2-1.6-.6-1.8-2.7-3.1-3.5-1.7-.1-3.3 0-4.4.4-1.1 2.8-1.3 6.4-2.7 8.9-4.5 3.7-16 6-18.6-.9-1.1-3-.1-7.2 1.3-10.6 1.5 1.5.1 3.4.9 5.3 2.3 5.9 11.9 4.5 15.1 0 0-3.6-2-5.1-3.1-7.5.1-2.1 1.9-2.5 2.7-4 2.1 1.8 4.2 3.5 8.9 2.7 1.3-2.7 3.8-6.5 6.7-6.2v8.3zm18.7-.9c1.9 1.4 3.7 2.8 7.1 2.7.7-5.7-5.6-7.5-7.1-2.7M66.1 356.4c4.9.5 8.2-.7 9.8-3.5-2.2-2-7.7-.6-9.3-3.1-.2-7.6 4.2-15 9.8-12.4 3.2 1.5 5.5 11.6 4 16-1 2.8-4.6 7.6-6.2 8-4.7 1-6.3-2.3-8.1-5m4.9-11.1c1.4.6 3.3 1.2 4.9.4.9-4.4-5.8-5.4-4.9-.4M59.5 352H29.3c-2.6 1.5-3.6 4.7-4.9 7.5-5.3 3-16.8 6.2-20-.9-.1-4-.1-7.8 1.3-10.2 1.5 3.3 1.3 7.9 5.3 8.9 3.8 1 8.1-.9 10.2-3.5-.5-2.2-4-1.3-5.8-2.2 0-2.6 1.5-3.5 2.2-5.3 11.5-.3 29.1.5 39.9-.4 1-1.9-1.3-2.4-.9-4.9.9-1.3 2.2-2.2 3.1-3.6 4.6 2.9 2.5 11.3-.2 14.6" class="E"/><path d="M380.9 352.4c-.9 1.9-2.4 3.2-4 4.4-2.5-1.2-4-3.4-5.8-5.3.1-2.7 2.7-2.9 3.5-4.9 3.5.7 4 4.1 6.3 5.8" class="F"/><path d="M228.8 356.4c1.6.8 2.8 1.9 4 3.1.1 1.6-1.6 1.4-2.2 2.2-2.3-.3-3.8-1.5-5.3.4-1.2-1.1-2.8-1.6-3.5-3.1.9-4.9 4.9.6 7-2.6" class="E"/><path d="M494 364.8c-.6 2.4-2.9 3-4 4.9-2.4-1.4-4-3.6-5.8-5.8.3-2.2 2.5-2.5 3.1-4.4 3.5.5 4.6 3.4 6.7 5.3" class="F"/><path d="M13.4 369.2c.8-.4 1.3-1.1 2.2-1.3 2 .5 3.3 1.7 4 3.5-.8.5-1.5 1.2-2.2 1.8-2.2-1.5-3.6-1.2-5.8 0-1.2-.9-2-2.1-3.5-2.7.3-2.6 3.8-3.2 5.3-1.3" class="E"/><g class="F"><path d="M131.7 378c8.8-3.4 9.1 11 2.6 11.5-6.1.5-7.9-9.4-2.6-11.5m-106 20.3c3.9 2.3 7.7 4.5 7.5 10.6-.4 11.9-14.2 12.4-28.7 11.5-1-12.1-.2-26-.4-38.9.3-.6.7-1.1 1.3-1.3 12.8-.6 28.3-1.3 25.2 12.4-.7 2.8-3.1 3.3-4.9 5.7m-11-11v8.4c5.3 2.4 8.9-5.2 4.9-8.4-2.5-.1-2.7-.4-4.9 0m0 26c5.9 2.3 9.3-4.4 6.6-9.3-1.4-1.3-3.7-1.6-6.6-1.3v10.6z"/><path d="M91.9 393c-.4 3.3-1.3 6-2.6 8.4-11.4-2.3-6.6 11.6-8.4 19h-9.3v-28.3c2.6-.2 10.9-2.5 9.7 2.6 2.7-.2 3-3.7 5.7-4 1.9 0 3 1.3 4.9 2.3m-44.1-.9c1 6.9-3 22.8 4.4 21.2 5.7-1.2.8-15.2 3.1-21.2 2.2-.7 7.1-.7 9.3 0 1 8.4.2 18.7.4 27.8-2.8.4-10.3 1.8-10.6-1.8-3.3 1-4.1 3-7.5 3.1-12 .4-8.3-16.4-8.8-28.7 1.6-1.5 7.4-.9 9.7-.4m57.4 0c.5 7-1.3 16.3 1.3 21.2 9.4 2.4 4.5-14.5 5.7-21.2 2.3-.7 7.4-.7 9.7 0v28.3c-3.2-.9-10.5 2.2-9.7-2.6-2.7.8-4.6 3.3-7.5 3.5-13.1.9-8.5-16.9-9.3-29.1 2.4-.8 7.5-.8 9.8-.1m33.5 0c-1.8 16.4 6.7 45.6-13.2 42.4-1.2-3.1 2.2-3.7 3.1-6.2 1.3-3.8.4-12.3.4-17.7V393c0-.8.3-1.1.9-1.3 2.8.2 6.7-.5 8.8.4"/></g><path d="M301.2 394.4c2.6 2.4.6 7.6-3.5 5.7-1.9-2.3-1.2-7.3 3.5-5.7m-129.8 1.7c.3 1.7-.5 2.1-.4 3.5-1.2.9-3.9.3-5.7.4-7 2.9-5.2 17.3 5.7 14.6.3 1.1.6 2 .4 3.5-21.6 7.7-21.6-29 0-22m183.2-.4v23h-5.3c-1-6.7-.2-15.1-.4-22.5 1.2-1 3.8-.3 5.7-.5m-61.4 7.5c.7 2.6-2.6 1.2-3.5 2.2v8.8c.3 1.6 2.3 1.5 3.5 2.2 1 3-4.5 3.4-6.6 2.7-4-1.4-2.3-7.9-2.6-12.8 0-1.5-2.3-.7-2.2-2.2.2-2.4 3.3-2 2.2-5.7 3-.7 6.9-1.9 5.7 3.1 0 1.7 2.7.8 3.5 1.7m-112.1-.9c13.3-2.3 12.3 20.3-1.3 16.8-6.9-1.8-7.8-15.3 1.3-16.8m1.3 14.1c4-.5 3.1-9.2 1.3-11.5-5.6-.7-4.9 10.5-1.3 11.5m27.4-8.8c3.2 12.5-13.3 14.7-16.3 6.2v-6.6c2.4-6.6 13.6-6.9 16.3.4m-7.9 8.8c3.2-1.2 2.8-9.2.9-11.5-5.7-.6-5.1 11-.9 11.5m17.2 1.4c-1.4 2.7.2 6-.9 9.3-1.8.2-3.1.5-4.9-.4v-23.8c2.1.1 4.9-.4 5.7.9 13.7-9.6 14.5 22.2.1 14m2.2-1.8c3.7-.4 3.2-8.5 1.3-10.6-5.5-1-5.1 9.9-1.3 10.6m26-5.3c-2.1 1.1-6.7-.2-8.8.9-.5 4.6 4.5 4.4 7.5 3.1-.1 1.1.7 1.4.9 2.2-1.1 2.6-5.2 2.2-8.8 2.2-4.7-2-8-9.1-4.4-14.1 4-5.8 15.2-3 13.6 5.7m-9.2-2.7c1 .9 3 1.2 4.4.4 1.7-3.9-4.8-5.4-4.4-.4m41 10.6c-2.1-.2-5.3.6-6.2-.9-4.2 3.8-10.9-.5-8-6.6 1.4-2.9 5.8-2.8 8-4-.9-4.6-5.4.9-7.1-2.2 1.9-4 10-3.7 12.4-.4 1 4 0 10.1.9 14.1m-9.7-4.4c.7.6 1.5 1.2 3.1.9.7-.9 1.4-3.2.4-4.4-2.3 0-3.5 1.2-3.5 3.5m67.5-3.5c-2.1 1.4-8.1-1-8.8 1.8.4 4.3 5.5 2.4 7.9 2.6-.1.5.1.8.4.9-.4 3.6-5.5 3.8-8.4 3.1-1.7-.4-4.1-2.6-4.4-3.1-8.4-12.4 14.8-21.3 13.3-5.3m-8.8-2.2c1.3.6 3.6.7 4.4-.4.8-4.6-5.7-4.6-4.4.4m45.9-5.3c2.1 3.5 1.1 10.1 1.3 15.5H370c-1.6-3.4 1.4-11.4-2.2-12.8-4.7.6-2.6 8-3.1 12.8h-4.9v-15.9c2.1.1 4.9-.4 5.7.9 2.7-1.5 5.9-2.5 8.5-.5m15 .4c-.3 2.4-2.6 1.4-4 1.8-1.1 4.3 4.6 4.3 4.9 8.4.3 4.8-5.5 6.6-11 4.4-.3-1.5.7-1.7.4-3.1 1.6.1 3.2 1.8 4.9.4-.4-4.9-6.4-4.2-4.9-11 1.8-2.5 7.3-3.7 9.7-.9m35.8-.9c.3 2.4-.7 3.4-1.3 4.9-2.4-.4-3.1.8-4.4 1.3-.2 3.2.4 7.2-.4 9.7h-5.3v-15.9c1.9.4 5.8-1.1 5.7 1.3 2.1-.8 3.1-3.1 5.7-1.3m16.8 15.9c-1.9-.7-3.9.9-5.7 0 0 0-.5-.9-.4-.9-2.1.1-2.8 1.9-5.3 1.3-7.2-1.6-2.4-12.2 4.9-11.9-.5-4.7-4.8.8-6.6-1.8 1.3-4.9 10.4-4.1 12.4-.4.4 4.3 0 9.5.7 13.7m-9.3-3.5c2.9.4 3.7-1.3 3.5-4-2.4-1.6-5 1.5-3.5 4m28.7-11c.5 4.2.9 10.4 0 14.6-1.6-.1-3.9.4-4.9-.4-.3-4.4.9-10.3-1.8-12.4-5.3.1-1.9 9-3.5 12.8H446v-15.9c2.5-.1 4.8-.1 6.2.9 2.7-2.3 6.4-1.9 8.8.4m17.2-.5c-.2 3.4-3 1.9-5.3 2.7-2.8 1.3-2.7 6.6-.4 8.4 1.9.7 5.4-.1 5.7 2.2-3.7 5-11.4 1.3-12.8-2.2-3.1-8.1 5.8-16.4 12.8-11.1m16.4 7.5c-2.6.2-6.1-.5-7.9.4-1 7.3 7.9.7 8.4 5.3-1.2 2.4-5.1 2.3-8.8 2.2-4.5-1.9-7.3-7.5-5.3-12.8 2.6-7.1 17.1-5.4 13.6 4.9m-8.4-3.1c.8 1.2 3.6 1.2 4.4 0 .8-4.7-5.1-4.1-4.4 0m-223.4-4.8c-.2 1.8-1 2.9-1.3 4.4-6.2-.9-5.1 5.5-5.3 10.6-.9.8-3.2.3-4.9.4.1-5.2-.1-12.1 0-15.9 1.9.3 5.4-1 4.9 1.8 2.1-.7 4.1-3.6 6.6-1.3m47.2-.9c1.6 2 1.4 5.9 3.1 7.9 2.2-1.6 1.6-6.1 3.5-7.9 1.4.1 2.5.4 3.5.9-1.5 5.5-4 10.2-5.7 15.5h-4c-1.9-5-3.8-10-5.3-15.5 1.4-.6 3.2-.7 4.9-.9m-7.9.9v15c-1 .8-3.2.3-4.9.4-.4-6.1-.6-9.4 0-15.9 1.6.2 3.9-.3 4.9.5m90.9-.5h5.3c.6 4.9-1.6 12 2.2 12.4 4.2.4 2.2-7 2.7-11.9 1.1-.7 4.6-.7 5.7 0-.3 5 .6 11.2-.4 15.5-2.5.1-4.8.1-6.2-.9-2.1 1.6-6.3 1.8-8.4 0-1.5-3.8-.7-10-.9-15.1" class="E"/><path d="M267.9 3.7c17.3 10 108.9 61.2 108.5 63.1h-216c-.2-2.3 103.1-60.2 107.5-63.1" class="F"/><path d="M150.4 71.8C184.3 90.5 257.1 132 258.9 134H42.4c35.5-21.2 72-41.5 108-62.2m235.1 0C419.4 90.2 492.4 131.9 494 134H278c1.5-2.4 89.5-51.7 107.5-62.2" class="E"/></g><path d="M223 207c.6 18.3.4 35.8-5.9 48.1-4.9 9.6-15.4 17.2-27.7 18.6-15.7 1.8-26.4-4-33.1-11.3-12-13.1-11.6-37.3-11.3-61.7l.1-.1c-4.8.1-9.7.3-14.6.6-.3 10.1.6 21.5-.5 30.9-2.7-6.4-5.4-12.2-10-16.8-2-2-9.8-6.9-11.3-7.7-1.4-.7-3-1.6-4.1-2.7 0-.1.1-.2.2-.4-5.7 1-11.7 2.3-18.1 4h.2c17.9 1.6 30.3 22.7 29 41.8-.3 4-1.4 8.8-3.6 12.3-3.2 5-10.5 9.9-19.1 10.4-8.3.5-19.6-.7-22.7-6.4s-1.4-18.1-1.4-26.8c0-9.5-.3-18.5.4-26.4l-14 4.6c-1.4 12.8 1.3 36.3-.9 48.6-.4 2.4-1.8 6.1-3.2 7.3-2.5 2.1-5.8.7-8.6 2.7 3 2.6 5.6.7 8.6.5 7.7-.6 15.2.3 22.7.9 32 2.6 54.1-9 56.7-37.2 2.4 4.9 3.4 9.6 5.4 14.1 6.1 13.1 17.6 22 34 24.5 23.3 3.6 41.6-4.2 51.7-16.8 10.2-12.6 11.7-31 11.8-52.6 1.1.1 2.2.3 3.4.5-5.8-1.6-11.9-3.1-18.2-4.3 1.5 0 2.8.4 4.1.8m-153.4-5c-.8-15.4-.8-34 0-49.5 9.9-3.6 19.8-1.9 25.9 4.1 9 8.8 11.5 30.9 2.9 40.2l14.7-2.5c-1.4 0-2.7.1-4-.1 4.8-8.5 9.1-15.6 7.3-26.8-1.7-10.2-12.4-19.3-26.3-20.9-14-1.6-33.4.8-47.2-.5-1.1-.1-1.1.8-2.3.5-.8 2.6 2.6 1.6 3.6 1.8 1.9.4 4.1.4 5.4.9 8.5 3.4 5.3 22.2 5.9 36.3.3 7.5-.2 14.8 0 20.9a370.64 370.64 0 0 1 18.3-4.7c-1.3.3-2.8.3-4.2.3" class="E"/><path d="M96.4 197.2c-2.3.3-4.6.8-6.8 1.3l6.8-1.3m151.5-48.9h.2" class="E"/><path d="M145 190.2c1.2-10.2-2.1-29.9 1.8-37.7 2-4 5.9-3.5 10.9-4.5-.8-2.4-4.2-1.8-6.4-1.8-6.9 0-15.7 1-23.6.5-4.5-.3-9.9-1.7-12.3 1.4 5.8 1.1 9.9.3 12.7 4.1 4.7 6.4 1.4 30.8 1.8 39.8 5.6-.7 10.7-1.3 15.1-1.6.1-.1 0-.2 0-.2M3.1 241.1l-1.6.9c.6-.4 1.1-.6 1.6-.9m246.1-94.4l-3.1.4c1.1-.2 2.1-.3 3.1-.4" class="E"/><path d="M317.4 235.1c-3.8-3.8-8-6.9-11.8-10.9 14.1-7.2 27.9-24.6 29.5-43.6.9-11.6-4.8-21.1-10.4-25.9-9.5-8-25.6-9.4-42.2-8.6-11.3.5-22.8-.5-33.2.5-1 .1-2.1.2-3.1.4-.2 0 .1 1 .4.9.4.1.8.2 1.3.3h.2c.4.1.8.2 1.1.2 4.7.8 9 .4 11.4 4 3.1 4.7 1.4 15.1 1.4 23.6v26.3c-8.5-2.3-16.8-4.3-24.9-5.9-4.9-1-9.7-1.8-14.4-2.6-26.7-4.2-50.5-4.8-70.1-4.2-2.1.1-4.6.2-7.4.5-4.4.4-9.5.9-15.1 1.6l-16.9 2.4-14.7 2.5c-.7.1-1.3.2-2 .4-2.3.4-4.5.9-6.8 1.3-5.3 1-10.6 2.2-15.7 3.3a370.64 370.64 0 0 0-18.3 4.7c-14.4 4.2-25.4 8.4-36.8 13.2-2.5 1.1-10 3.9-11.3 5.4-1.7 1.9-2.2 5.5-3.2 8.2-1 2.8-2.2 5.5-2.7 8.6.5-.3 1-.6 1.6-.9 13.7-7.4 44.4-20.4 52.4-23.2l14-4.6c6.2-1.9 11.8-3.6 17.1-4.9 6.4-1.7 12.4-2.9 18.1-4 8.6-1.5 16.8-2.5 25.7-3.3 4.9-.3 9.8-.5 14.6-.6 27-.7 52.1 1.1 74 5.3 6.3 1.2 12.4 2.7 18.2 4.3 8.9 2.5 17.2 5.5 24.7 9-.7 11.3.9 30.5 0 42.7-.3 4.4-1.2 10.5-4.5 12.3-2.4 1.2-6.4-.6-7.7 2.7 3.4 1.9 7.4.6 11.3.5 6-.3 12.9-.3 19.1 0 4.5.2 9.2 1.5 13.2-.5-2.3-3.6-8.3-1.4-11.3-2.7-3.8-1.7-4.7-8.2-5-12.7-.7-10.5-.3-26.6 0-35.4 3.2.1 5.7 2.6 8.2 4.1 19.3 11.5 36.6 25.4 45.4 46.7h12.3c-4.5-17.9-14.8-30.5-25.7-41.4M277 208.8c-.8-17.4-.8-38 0-55.4 26.5-7.6 43.7 8.9 43.1 34-.4 17.1-9 27.4-25 30.4l-18.1-9" class="F"/><path d="M366 147.1c-4 2.7-8 1.3-10.4 4.1-2.8 3.4-2.2 12.9-2.3 19.5-.2 21.5-1.3 44.6.5 64 2.2 24.1 18.5 41.2 42.7 39 21.3-1.9 32.6-18.4 34.5-41.3 1.2-13.8.5-27.7.5-41.7 0-6.1.4-13.4 0-21.3-.3-6.2 0-15.2-2.7-18.2-2.6-2.8-8-1.7-12.3-3.6.3-1.4 2.6-1.2 4.1-1.4 3.8-.3 9.5.5 15 .5 7.3 0 14.8-.8 19.5.5-3 2.6-8 1.2-10.4 3.6-4.6 4.6-2.7 26.6-2.7 35.9 0 33.5 2.7 62.6-15 79.9-17.8 17.4-57.9 18-75.3-.5-17.6-18.6-13.2-59-13.2-96.7 0-7.2.5-15.4-2.7-18.2-1.8-1.6-3.9-1.8-6.4-2.3-1.5-.3-5.7.7-5.4-2.3 5.6-.6 14 0 22.2 0 7 0 14.5-.9 19.8.5m131.6.9c-4.5.8-8.5.9-10.4 3.6-3.4 4.6-1.8 20.2-1.8 29.9v31.8c0 21.7 1 43.6-1.4 61.7-2.3 17.7-11.7 28-23.1 36.8-4.4 3.3-9.6 6.7-15 9.1-.4-3.3 3.6-4.8 5.4-6.4 6.6-5.5 12-11.9 15-21.8 7.3-24 4.5-61.1 4.5-93.9v-24.5c0-8.1.4-18.6-2.3-22.2-1.4-1.9-3.6-2.6-6.4-3.2-2.1-.4-6.6.5-6.4-2.3h.9l32.7-.5c3.1 0 7-.5 8.3 1.9m-264.2 24c.3-7.8-.3-17.4 2.7-20.9 2.4-2.8 7.1-2.3 10.4-3.2.5-.6.1-.6-.4-.9-5.3-1.1-12.4-.5-19.5-.5-3.3 0-6.6-.3-9.5-.5-3.2-.1-7-.8-9.1 1.4 5.5 2 10.3.4 13.2 5 3.5 5.5 2.3 22.1 2.3 30.9 0 4-.9 17-.5 23.6.6 18.3.4 35.8-5.9 48.1-4.9 9.6-15.4 17.2-27.7 18.6-6.5.7-12.2.2-17.1-1.3l-.1 7c22.4 2.9 40-4.8 49.8-17 10.2-12.6 11.7-31 11.8-52.6.2-8.8-.7-28.8-.4-37.7" class="E G"/></svg>