<svg id="Layer_1" data-name="Layer 1" xmlns="http://www.w3.org/2000/svg" viewBox="0 0 106.36 31.87"><defs><style>.cls-1{fill:none;stroke:#fff;}.cls-1,.cls-3{stroke-miterlimit:10;stroke-width:0.5px;}.cls-2,.cls-3,.cls-6{fill:#fff;}.cls-3{stroke:#146394;}.cls-4{opacity:0.2;}.cls-4,.cls-5,.cls-6{isolation:isolate;}.cls-5{opacity:0.12;}.cls-6{opacity:0.25;}</style></defs><rect id="rect48" class="cls-1" x="0.25" y="0.25" width="105.86" height="31.37" rx="3.92"/><path id="path52-2" class="cls-2" d="M39.25,8.48a2,2,0,0,1-.54,1.45,2.13,2.13,0,0,1-1.6.64,2.28,2.28,0,0,1-2.26-2.3,2.25,2.25,0,0,1,.66-1.59A2.31,2.31,0,0,1,38,6.21a1.8,1.8,0,0,1,.68.48l-.39.39a1.46,1.46,0,0,0-1.19-.52,1.69,1.69,0,0,0-1.69,1.68V8.3A1.72,1.72,0,0,0,37.11,10a1.74,1.74,0,0,0,1.21-.48,1.35,1.35,0,0,0,.37-.89H37.11V8.15h2.11a1.84,1.84,0,0,1,0,.33Z"/><path id="path54-6" class="cls-2" d="M42.57,6.66h-2V8H42.4v.52H40.62V9.94h2v.54H40V6.13h2.53Z"/><path id="path56-4" class="cls-2" d="M45,10.48h-.56V6.66H43.18V6.13h3v.53H45Z"/><path id="path58-2" class="cls-2" d="M48.33,10.48V6.13h.56v4.35Z"/><path id="path60-7" class="cls-2" d="M51.37,10.48h-.56V6.66H49.59V6.13h3v.53H51.37Z"/><path id="path62-0" class="cls-2" d="M58.25,9.91a2.26,2.26,0,0,1-3.19,0,2.33,2.33,0,0,1,0-3.22,2.25,2.25,0,0,1,3.18,0v0A2.33,2.33,0,0,1,58.25,9.91Zm-2.78-.36a1.67,1.67,0,0,0,2.36,0,1.83,1.83,0,0,0,0-2.49,1.65,1.65,0,0,0-2.36,0A1.85,1.85,0,0,0,55.47,9.55Z"/><path id="path64" class="cls-2" d="M59.68,10.48V6.13h.68l2.12,3.38h0V6.13H63v4.35h-.58L60.23,6.93h0v3.55Z"/><path id="path66" class="cls-2" d="M54.28,16.82a3.09,3.09,0,1,0,3.1,3.09,3.05,3.05,0,0,0-3-3.09Zm0,5a1.87,1.87,0,1,1,1.74-2v.13a1.79,1.79,0,0,1-1.69,1.87Zm-6.75-5a3.09,3.09,0,1,0,3.09,3.09,3.05,3.05,0,0,0-3-3.09h-.09Zm0,5a1.87,1.87,0,1,1,1.73-2v.14a1.79,1.79,0,0,1-1.69,1.87h0Zm-8.05-4v1.31h3.14a2.77,2.77,0,0,1-.73,1.65,3.19,3.19,0,0,1-2.41.95,3.48,3.48,0,1,1,0-7,3.34,3.34,0,0,1,2.37.94l.92-.92a4.56,4.56,0,0,0-3.29-1.36A4.79,4.79,0,0,0,39.11,23h.37A4.23,4.23,0,0,0,44,18.56a4.47,4.47,0,0,0-.07-.82H39.48Zm32.87,1a2.84,2.84,0,0,0-5.55.93,1.28,1.28,0,0,0,0,.19,3,3,0,0,0,3,3.08h.11a3.08,3.08,0,0,0,2.56-1.36l-1.05-.73a1.77,1.77,0,0,1-1.51.86,1.58,1.58,0,0,1-1.5-.94l4.13-1.7Zm-4.21,1A1.69,1.69,0,0,1,69.72,18h0a1.22,1.22,0,0,1,1.15.65Zm-3.35,3h1.36V13.74H64.79Zm-2.22-5.3h0a2.19,2.19,0,0,0-1.63-.72,3.09,3.09,0,0,0,0,6.17,2.08,2.08,0,0,0,1.63-.73h0v.51c0,1.18-.63,1.81-1.64,1.81a1.71,1.71,0,0,1-1.56-1.1l-1.18.5a3,3,0,0,0,2.74,1.82c1.58,0,2.9-.94,2.9-3.22V17H62.57ZM61,21.78A1.88,1.88,0,0,1,61,18a1.73,1.73,0,0,1,1.65,1.82v.05a1.72,1.72,0,0,1-1.57,1.86H61Zm17.68-8H75.46v9.07h1.35V19.37h1.9a2.82,2.82,0,1,0,.39-5.63Zm0,4.35H76.81V15h1.92a1.56,1.56,0,0,1,0,3.11h0Zm8.36-1.3a2.52,2.52,0,0,0-2.41,1.38l1.2.5a1.49,1.49,0,0,1,2.68.48v.12a3,3,0,0,0-1.41-.35c-1.3,0-2.61.73-2.61,2a2.1,2.1,0,0,0,2.19,2h.06a1.91,1.91,0,0,0,1.74-.87h0v.73h1.31V19.32a2.5,2.5,0,0,0-2.75-2.51Zm-.17,5a.93.93,0,0,1-1-.77c0-.73.76-1,1.45-1a2.42,2.42,0,0,1,1.23.31,1.64,1.64,0,0,1-1.59,1.45ZM94.6,17l-1.55,3.93h0L91.4,17H90l2.41,5.49L91,25.56H92.4L96.11,17H94.6Zm-12.19,5.8h1.36V13.74H82.41Z"/><path id="path68" class="cls-3" d="M12.43,6.52a1.48,1.48,0,0,0-.33,1v16a1.47,1.47,0,0,0,.33,1l.05.05,9-9v-.21l-9-9Z"/><path id="path70" class="cls-3" d="M24.44,18.66l-3-3v-.21l3-3,.07,0,3.56,2a1.11,1.11,0,0,1,0,2.1l-3.55,2Z"/><path id="path72" class="cls-3" d="M24.53,18.62l-3.06-3.06-9,9a1.18,1.18,0,0,0,1.51.05l10.6-6"/><path id="path74" class="cls-3" d="M24.53,12.49l-10.6-6a1.16,1.16,0,0,0-1.5,0l9,9Z"/><path id="path76" class="cls-4" d="M24.44,18.55l-10.51,6a1.19,1.19,0,0,1-1.45,0h0l-.05,0h0l.05.06h0a1.22,1.22,0,0,0,1.45,0l10.6-6Z"/><path id="path80" class="cls-5" d="M28.07,16.5l-3.63,2.05.07.07,3.56-2a1.24,1.24,0,0,0,.72-1h0a1.35,1.35,0,0,1-.72.94Z"/><path id="path82" class="cls-6" d="M13.93,6.58l14.14,8a1.37,1.37,0,0,1,.72,1h0a1.25,1.25,0,0,0-.72-1.05l-14.14-8c-1-.58-1.84-.1-1.84,1.06v.11c0-1.17.84-1.65,1.84-1.07Z"/></svg>